<svg width="512" height="512" viewBox="0 0 512 512" fill="none" xmlns="http://www.w3.org/2000/svg">
<g clip-path="url(#clip0)">
<path d="M427 0H85.668C62.1133 0.0273438 43.0273 19.1133 43 42.668V452.266C43 466.406 54.4609 477.867 68.6016 477.867V503.465C68.6016 508.18 72.4219 512 77.1328 512H435.535C440.246 512 444.066 508.18 444.066 503.465V477.867C458.203 477.867 469.668 466.406 469.668 452.266V42.668C469.637 19.1133 450.555 0.0273438 427 0V0ZM85.668 17.0664H427C441.137 17.0664 452.602 28.5273 452.602 42.668V102.402H60.0664V42.668C60.0664 28.5273 71.5273 17.0664 85.668 17.0664ZM427 494.934H85.668V477.867H427V494.934ZM444.066 460.801H68.6016C63.8867 460.801 60.0664 456.98 60.0664 452.266V119.465H452.602V452.266C452.602 456.98 448.781 460.801 444.066 460.801V460.801Z" fill="#3F3F3F"/>
<path d="M85.668 85.332H188.066C192.781 85.332 196.602 81.5117 196.602 76.8008V42.668C196.602 37.9531 192.781 34.1328 188.066 34.1328H85.668C80.9531 34.1328 77.1328 37.9531 77.1328 42.668V76.8008C77.1328 81.5117 80.9531 85.332 85.668 85.332ZM94.1992 51.1992H179.535V68.2656H94.1992V51.1992Z" fill="#3F3F3F"/>
<path d="M239.266 85.332C253.406 85.332 264.867 73.8711 264.867 59.7344C264.867 45.5938 253.406 34.1328 239.266 34.1328C225.129 34.1328 213.668 45.5938 213.668 59.7344C213.668 73.8711 225.129 85.332 239.266 85.332ZM239.266 51.1992C243.98 51.1992 247.801 55.0195 247.801 59.7344C247.801 64.4453 243.98 68.2656 239.266 68.2656C234.555 68.2656 230.734 64.4453 230.734 59.7344C230.734 55.0195 234.555 51.1992 239.266 51.1992Z" fill="#3F3F3F"/>
<path d="M307.531 85.332C321.672 85.332 333.133 73.8711 333.133 59.7344C333.133 45.5938 321.672 34.1328 307.531 34.1328C293.395 34.1328 281.934 45.5938 281.934 59.7344C281.934 73.8711 293.395 85.332 307.531 85.332ZM307.531 51.1992C312.246 51.1992 316.066 55.0195 316.066 59.7344C316.066 64.4453 312.246 68.2656 307.531 68.2656C302.82 68.2656 299 64.4453 299 59.7344C299 55.0195 302.82 51.1992 307.531 51.1992Z" fill="#3F3F3F"/>
<path d="M358.734 68.2656H375.801C380.512 68.2656 384.332 64.4453 384.332 59.7344C384.332 55.0195 380.512 51.1992 375.801 51.1992H358.734C354.02 51.1992 350.199 55.0195 350.199 59.7344C350.199 64.4453 354.02 68.2656 358.734 68.2656Z" fill="#3F3F3F"/>
<path d="M409.934 68.2656H427C431.715 68.2656 435.535 64.4453 435.535 59.7344C435.535 55.0195 431.715 51.1992 427 51.1992H409.934C405.219 51.1992 401.398 55.0195 401.398 59.7344C401.398 64.4453 405.219 68.2656 409.934 68.2656V68.2656Z" fill="#3F3F3F"/>
<path d="M256.332 153.602C180.93 153.602 119.801 214.727 119.801 290.133C119.801 365.539 180.93 426.668 256.332 426.668C331.738 426.668 392.867 365.539 392.867 290.133C392.777 214.766 331.703 153.691 256.332 153.602V153.602ZM256.332 409.602C190.355 409.602 136.867 356.113 136.867 290.133C136.867 224.152 190.355 170.668 256.332 170.668C322.312 170.668 375.801 224.152 375.801 290.133C375.73 356.082 322.285 409.531 256.332 409.602V409.602Z" fill="#3F3F3F"/>
<path d="M256.332 179.199C195.129 179.141 145.461 228.707 145.398 289.91C145.387 304.414 148.219 318.781 153.738 332.195C153.789 332.367 153.738 332.543 153.805 332.715C153.875 332.887 154.035 333.047 154.121 333.246C177.887 389.664 242.891 416.133 299.309 392.367C330.879 379.066 354.523 351.918 363.367 318.824C363.414 318.684 363.449 318.539 363.477 318.395C379.324 259.457 344.391 198.832 285.449 182.988C275.957 180.438 266.164 179.16 256.332 179.199V179.199ZM256.332 196.266C308.051 196.145 350.078 237.973 350.199 289.688C350.215 296.672 349.453 303.633 347.922 310.441C343.473 311.914 339.105 313.625 334.84 315.563C323.77 321.309 311.473 324.293 299 324.266C288.379 324.551 277.887 321.891 268.68 316.586C257.094 310.137 243.992 306.898 230.734 307.199C209.059 308.082 187.625 312.105 167.109 319.145C151.023 269.926 177.883 216.988 227.102 200.906C236.539 197.82 246.406 196.254 256.332 196.266V196.266ZM256.332 384C221.934 383.977 190.297 365.148 173.867 334.926C192.219 328.68 211.367 325.09 230.734 324.266C241.355 323.984 251.848 326.641 261.051 331.945C272.641 338.395 285.742 341.637 299 341.332C313.332 341.41 327.484 338.141 340.328 331.785C324.512 363.723 291.973 383.953 256.332 384Z" fill="#3F3F3F"/>
</g>
<defs>
<clipPath id="clip0">
<rect width="512" height="512" fill="white"/>
</clipPath>
</defs>
</svg>
